<mxfile host="app.diagrams.net" agent="Mozilla/5.0 (Macintosh; Intel Mac OS X 10_15_7) AppleWebKit/537.36 (KHTML, like Gecko) Chrome/128.0.0.0 Safari/537.36" version="24.7.13">
  <diagram name="Page-1" id="cwmyHKKqJBm_i41qSlCH">
    <mxGraphModel dx="1593" dy="1219" grid="0" gridSize="10" guides="1" tooltips="1" connect="1" arrows="1" fold="1" page="0" pageScale="1" pageWidth="850" pageHeight="1100" math="0" shadow="0">
      <root>
        <mxCell id="0" />
        <mxCell id="1" parent="0" />
        <mxCell id="bcLuSOHy8NPtrxXBTk8p-5" value="" style="edgeStyle=none;curved=1;rounded=0;orthogonalLoop=1;jettySize=auto;html=1;fontSize=12;startSize=8;endSize=8;labelBackgroundColor=none;strokeColor=#182E3E;fontColor=default;" edge="1" parent="1" source="bcLuSOHy8NPtrxXBTk8p-1" target="bcLuSOHy8NPtrxXBTk8p-4">
          <mxGeometry relative="1" as="geometry" />
        </mxCell>
        <mxCell id="bcLuSOHy8NPtrxXBTk8p-1" value="Customer" style="rounded=1;whiteSpace=wrap;html=1;labelBackgroundColor=none;fillColor=#56517E;strokeColor=#EEEEEE;fontColor=#FFFFFF;" vertex="1" parent="1">
          <mxGeometry x="-243" y="-46" width="120" height="60" as="geometry" />
        </mxCell>
        <mxCell id="bcLuSOHy8NPtrxXBTk8p-7" value="" style="edgeStyle=none;curved=1;rounded=0;orthogonalLoop=1;jettySize=auto;html=1;fontSize=12;startSize=8;endSize=8;labelBackgroundColor=none;strokeColor=#182E3E;fontColor=default;" edge="1" parent="1" source="bcLuSOHy8NPtrxXBTk8p-4" target="bcLuSOHy8NPtrxXBTk8p-6">
          <mxGeometry relative="1" as="geometry" />
        </mxCell>
        <mxCell id="bcLuSOHy8NPtrxXBTk8p-4" value="Web/Mobile Platfrom" style="shape=hexagon;perimeter=hexagonPerimeter2;whiteSpace=wrap;html=1;fixedSize=1;rounded=1;labelBackgroundColor=none;fillColor=#56517E;strokeColor=#EEEEEE;fontColor=#FFFFFF;" vertex="1" parent="1">
          <mxGeometry x="-91" y="-70.5" width="164" height="109" as="geometry" />
        </mxCell>
        <mxCell id="bcLuSOHy8NPtrxXBTk8p-9" value="" style="edgeStyle=none;curved=1;rounded=0;orthogonalLoop=1;jettySize=auto;html=1;fontSize=12;startSize=8;endSize=8;labelBackgroundColor=none;strokeColor=#182E3E;fontColor=default;" edge="1" parent="1" source="bcLuSOHy8NPtrxXBTk8p-6" target="bcLuSOHy8NPtrxXBTk8p-8">
          <mxGeometry relative="1" as="geometry" />
        </mxCell>
        <mxCell id="bcLuSOHy8NPtrxXBTk8p-6" value="Selects venue based on:&lt;div&gt;Hall capacity&lt;/div&gt;&lt;div&gt;Parking Capacity&lt;/div&gt;&lt;div&gt;Estimated Booking Price&lt;/div&gt;&lt;div&gt;Past reviews&lt;/div&gt;" style="shape=hexagon;perimeter=hexagonPerimeter2;whiteSpace=wrap;html=1;fixedSize=1;rounded=1;labelBackgroundColor=none;fillColor=#56517E;strokeColor=#EEEEEE;fontColor=#FFFFFF;" vertex="1" parent="1">
          <mxGeometry x="111" y="-70.5" width="164" height="109" as="geometry" />
        </mxCell>
        <mxCell id="bcLuSOHy8NPtrxXBTk8p-18" value="" style="edgeStyle=none;curved=1;rounded=0;orthogonalLoop=1;jettySize=auto;html=1;fontSize=12;startSize=8;endSize=8;labelBackgroundColor=none;strokeColor=#182E3E;fontColor=default;" edge="1" parent="1" source="bcLuSOHy8NPtrxXBTk8p-8" target="bcLuSOHy8NPtrxXBTk8p-17">
          <mxGeometry relative="1" as="geometry" />
        </mxCell>
        <mxCell id="bcLuSOHy8NPtrxXBTk8p-8" value="Schedule a meet with venue owner/manager." style="shape=hexagon;perimeter=hexagonPerimeter2;whiteSpace=wrap;html=1;fixedSize=1;rounded=1;labelBackgroundColor=none;fillColor=#56517E;strokeColor=#EEEEEE;fontColor=#FFFFFF;" vertex="1" parent="1">
          <mxGeometry x="313" y="-70.5" width="164" height="109" as="geometry" />
        </mxCell>
        <mxCell id="bcLuSOHy8NPtrxXBTk8p-12" value="" style="edgeStyle=none;curved=1;rounded=0;orthogonalLoop=1;jettySize=auto;html=1;fontSize=12;startSize=8;endSize=8;labelBackgroundColor=none;strokeColor=#182E3E;fontColor=default;" edge="1" parent="1" source="bcLuSOHy8NPtrxXBTk8p-10" target="bcLuSOHy8NPtrxXBTk8p-11">
          <mxGeometry relative="1" as="geometry" />
        </mxCell>
        <mxCell id="bcLuSOHy8NPtrxXBTk8p-10" value="Venue owner/manager" style="rounded=1;whiteSpace=wrap;html=1;labelBackgroundColor=none;fillColor=#f8cecc;strokeColor=#b85450;" vertex="1" parent="1">
          <mxGeometry x="-239" y="148" width="120" height="60" as="geometry" />
        </mxCell>
        <mxCell id="bcLuSOHy8NPtrxXBTk8p-14" value="" style="edgeStyle=none;curved=1;rounded=0;orthogonalLoop=1;jettySize=auto;html=1;fontSize=12;startSize=8;endSize=8;labelBackgroundColor=none;strokeColor=#182E3E;fontColor=default;" edge="1" parent="1" source="bcLuSOHy8NPtrxXBTk8p-11" target="bcLuSOHy8NPtrxXBTk8p-13">
          <mxGeometry relative="1" as="geometry" />
        </mxCell>
        <mxCell id="bcLuSOHy8NPtrxXBTk8p-11" value="Request to list venue on our platform" style="shape=hexagon;perimeter=hexagonPerimeter2;whiteSpace=wrap;html=1;fixedSize=1;rounded=1;labelBackgroundColor=none;fillColor=#f8cecc;strokeColor=#b85450;" vertex="1" parent="1">
          <mxGeometry x="-89" y="138" width="120" height="80" as="geometry" />
        </mxCell>
        <mxCell id="bcLuSOHy8NPtrxXBTk8p-16" value="" style="edgeStyle=none;curved=1;rounded=0;orthogonalLoop=1;jettySize=auto;html=1;fontSize=12;startSize=8;endSize=8;labelBackgroundColor=none;strokeColor=#182E3E;fontColor=default;" edge="1" parent="1" source="bcLuSOHy8NPtrxXBTk8p-13" target="bcLuSOHy8NPtrxXBTk8p-15">
          <mxGeometry relative="1" as="geometry" />
        </mxCell>
        <mxCell id="bcLuSOHy8NPtrxXBTk8p-13" value="Get verified by Sthal team through online and offline visits and audits." style="shape=hexagon;perimeter=hexagonPerimeter2;whiteSpace=wrap;html=1;fixedSize=1;rounded=1;labelBackgroundColor=none;fillColor=#f8cecc;strokeColor=#b85450;" vertex="1" parent="1">
          <mxGeometry x="54" y="131" width="150" height="94" as="geometry" />
        </mxCell>
        <mxCell id="bcLuSOHy8NPtrxXBTk8p-15" value="Get listed" style="shape=hexagon;perimeter=hexagonPerimeter2;whiteSpace=wrap;html=1;fixedSize=1;rounded=1;labelBackgroundColor=none;fillColor=#f8cecc;strokeColor=#b85450;" vertex="1" parent="1">
          <mxGeometry x="233" y="141" width="120" height="80" as="geometry" />
        </mxCell>
        <mxCell id="bcLuSOHy8NPtrxXBTk8p-17" value="Meet is done between customer and owner/manager" style="rhombus;whiteSpace=wrap;html=1;rounded=1;labelBackgroundColor=none;fillColor=#e1d5e7;strokeColor=#9673a6;" vertex="1" parent="1">
          <mxGeometry x="382" y="62" width="154" height="205" as="geometry" />
        </mxCell>
        <mxCell id="bcLuSOHy8NPtrxXBTk8p-21" style="edgeStyle=none;curved=1;rounded=0;orthogonalLoop=1;jettySize=auto;html=1;fontSize=12;startSize=8;endSize=8;entryX=0.11;entryY=0.637;entryDx=0;entryDy=0;entryPerimeter=0;labelBackgroundColor=none;strokeColor=#182E3E;fontColor=default;" edge="1" parent="1" source="bcLuSOHy8NPtrxXBTk8p-15" target="bcLuSOHy8NPtrxXBTk8p-17">
          <mxGeometry relative="1" as="geometry" />
        </mxCell>
        <mxCell id="bcLuSOHy8NPtrxXBTk8p-22" value="If no" style="endArrow=classic;html=1;rounded=0;fontSize=12;startSize=8;endSize=8;curved=1;exitX=1;exitY=0.5;exitDx=0;exitDy=0;entryX=0.5;entryY=0;entryDx=0;entryDy=0;labelBackgroundColor=none;strokeColor=#182E3E;fontColor=default;" edge="1" parent="1" source="bcLuSOHy8NPtrxXBTk8p-17" target="bcLuSOHy8NPtrxXBTk8p-6">
          <mxGeometry x="-0.8201" y="18" width="50" height="50" relative="1" as="geometry">
            <mxPoint x="175" y="225" as="sourcePoint" />
            <mxPoint x="225" y="175" as="targetPoint" />
            <Array as="points">
              <mxPoint x="567" y="-223" />
            </Array>
            <mxPoint as="offset" />
          </mxGeometry>
        </mxCell>
        <mxCell id="bcLuSOHy8NPtrxXBTk8p-23" value="IF yes" style="endArrow=classic;html=1;rounded=0;fontSize=12;startSize=8;endSize=8;curved=1;exitX=1;exitY=0.5;exitDx=0;exitDy=0;labelBackgroundColor=none;strokeColor=#182E3E;fontColor=default;" edge="1" parent="1" source="bcLuSOHy8NPtrxXBTk8p-17">
          <mxGeometry x="0.1311" y="-10" width="50" height="50" relative="1" as="geometry">
            <mxPoint x="119" y="243" as="sourcePoint" />
            <mxPoint x="536" y="298" as="targetPoint" />
            <Array as="points">
              <mxPoint x="569" y="215" />
            </Array>
            <mxPoint as="offset" />
          </mxGeometry>
        </mxCell>
        <mxCell id="bcLuSOHy8NPtrxXBTk8p-26" value="" style="edgeStyle=none;curved=1;rounded=0;orthogonalLoop=1;jettySize=auto;html=1;fontSize=12;startSize=8;endSize=8;labelBackgroundColor=none;strokeColor=#182E3E;fontColor=default;" edge="1" parent="1" source="bcLuSOHy8NPtrxXBTk8p-24" target="bcLuSOHy8NPtrxXBTk8p-25">
          <mxGeometry relative="1" as="geometry" />
        </mxCell>
        <mxCell id="bcLuSOHy8NPtrxXBTk8p-24" value="Pay advance through online mode on our portal and reserves the date" style="shape=hexagon;perimeter=hexagonPerimeter2;whiteSpace=wrap;html=1;fixedSize=1;labelBackgroundColor=none;fillColor=#56517E;strokeColor=#EEEEEE;fontColor=#FFFFFF;" vertex="1" parent="1">
          <mxGeometry x="388.5" y="276" width="141" height="128" as="geometry" />
        </mxCell>
        <mxCell id="bcLuSOHy8NPtrxXBTk8p-28" value="" style="edgeStyle=none;curved=1;rounded=0;orthogonalLoop=1;jettySize=auto;html=1;fontSize=12;startSize=8;endSize=8;labelBackgroundColor=none;strokeColor=#182E3E;fontColor=default;" edge="1" parent="1" source="bcLuSOHy8NPtrxXBTk8p-25" target="bcLuSOHy8NPtrxXBTk8p-27">
          <mxGeometry relative="1" as="geometry" />
        </mxCell>
        <mxCell id="bcLuSOHy8NPtrxXBTk8p-25" value="Make payments online/cash directly to the manager with each checkpoint of the event is done" style="shape=hexagon;perimeter=hexagonPerimeter2;whiteSpace=wrap;html=1;fixedSize=1;labelBackgroundColor=none;fillColor=#56517E;strokeColor=#EEEEEE;fontColor=#FFFFFF;" vertex="1" parent="1">
          <mxGeometry x="127.5" y="276" width="141" height="128" as="geometry" />
        </mxCell>
        <mxCell id="bcLuSOHy8NPtrxXBTk8p-30" value="" style="edgeStyle=none;curved=1;rounded=0;orthogonalLoop=1;jettySize=auto;html=1;fontSize=12;startSize=8;endSize=8;labelBackgroundColor=none;strokeColor=#182E3E;fontColor=default;" edge="1" parent="1" source="bcLuSOHy8NPtrxXBTk8p-27" target="bcLuSOHy8NPtrxXBTk8p-29">
          <mxGeometry relative="1" as="geometry" />
        </mxCell>
        <mxCell id="bcLuSOHy8NPtrxXBTk8p-27" value="Final Payment Done" style="shape=parallelogram;perimeter=parallelogramPerimeter;whiteSpace=wrap;html=1;fixedSize=1;labelBackgroundColor=none;fillColor=#56517E;strokeColor=#EEEEEE;fontColor=#FFFFFF;" vertex="1" parent="1">
          <mxGeometry x="-44" y="312" width="140" height="76" as="geometry" />
        </mxCell>
        <mxCell id="bcLuSOHy8NPtrxXBTk8p-32" value="" style="edgeStyle=none;curved=1;rounded=0;orthogonalLoop=1;jettySize=auto;html=1;fontSize=12;startSize=8;endSize=8;labelBackgroundColor=none;strokeColor=#182E3E;fontColor=default;" edge="1" parent="1" source="bcLuSOHy8NPtrxXBTk8p-29" target="bcLuSOHy8NPtrxXBTk8p-31">
          <mxGeometry relative="1" as="geometry" />
        </mxCell>
        <mxCell id="bcLuSOHy8NPtrxXBTk8p-29" value="Event is done" style="rounded=1;whiteSpace=wrap;html=1;labelBackgroundColor=none;fillColor=#56517E;strokeColor=#EEEEEE;fontColor=#FFFFFF;" vertex="1" parent="1">
          <mxGeometry x="-206" y="310" width="120" height="60" as="geometry" />
        </mxCell>
        <mxCell id="bcLuSOHy8NPtrxXBTk8p-31" value="Feedback is taken from both user and the venue owner" style="shape=hexagon;perimeter=hexagonPerimeter2;whiteSpace=wrap;html=1;fixedSize=1;rounded=1;labelBackgroundColor=none;fillColor=#56517E;strokeColor=#EEEEEE;fontColor=#FFFFFF;" vertex="1" parent="1">
          <mxGeometry x="-331" y="404" width="120" height="80" as="geometry" />
        </mxCell>
        <mxCell id="bcLuSOHy8NPtrxXBTk8p-33" value="" style="endArrow=classic;html=1;rounded=0;fontSize=12;startSize=8;endSize=8;curved=1;exitX=0;exitY=0.5;exitDx=0;exitDy=0;labelBackgroundColor=none;strokeColor=#182E3E;fontColor=default;" edge="1" parent="1">
          <mxGeometry width="50" height="50" relative="1" as="geometry">
            <mxPoint x="-330" y="445" as="sourcePoint" />
            <mxPoint x="-8" y="-71" as="targetPoint" />
            <Array as="points">
              <mxPoint x="-370" y="-111" />
              <mxPoint x="-93" y="-60" />
            </Array>
          </mxGeometry>
        </mxCell>
        <mxCell id="bcLuSOHy8NPtrxXBTk8p-35" value="Payment is settled with Sthal" style="endArrow=classic;html=1;rounded=0;strokeColor=#182E3E;fontSize=12;startSize=8;endSize=8;curved=1;exitX=0;exitY=0.25;exitDx=0;exitDy=0;" edge="1" parent="1" source="bcLuSOHy8NPtrxXBTk8p-27">
          <mxGeometry width="50" height="50" relative="1" as="geometry">
            <mxPoint x="135" y="331" as="sourcePoint" />
            <mxPoint x="-176" y="211" as="targetPoint" />
          </mxGeometry>
        </mxCell>
        <mxCell id="bcLuSOHy8NPtrxXBTk8p-36" value="" style="endArrow=classic;html=1;rounded=0;strokeColor=#182E3E;fontSize=12;startSize=8;endSize=8;curved=1;" edge="1" parent="1">
          <mxGeometry width="50" height="50" relative="1" as="geometry">
            <mxPoint x="-240" y="200" as="sourcePoint" />
            <mxPoint x="-281" y="394" as="targetPoint" />
          </mxGeometry>
        </mxCell>
      </root>
    </mxGraphModel>
  </diagram>
</mxfile>
